<?xml version="1.0" standalone="no"?>
<!DOCTYPE svg PUBLIC "-//W3C//DTD SVG 20010904//EN"
 "http://www.w3.org/TR/2001/REC-SVG-20010904/DTD/svg10.dtd">
<svg version="1.0" xmlns="http://www.w3.org/2000/svg"
 width="278.000000pt" height="359.000000pt" viewBox="0 0 278.000000 359.000000"
 preserveAspectRatio="xMidYMid meet">
<metadata>
Created by potrace 1.14, written by Peter Selinger 2001-2017
</metadata>
<g transform="translate(0.000000,359.000000) scale(0.100000,-0.100000)"
fill="#000000" stroke="none">
<path d="M1157 3418 c-55 -130 -553 -1280 -566 -1308 -15 -31 -15 -40 -4 -68
15 -36 19 -36 -80 7 -27 12 -52 21 -57 21 -5 0 -49 -52 -99 -115 l-91 -114 0
-166 c0 -91 4 -165 8 -165 4 0 13 5 19 11 12 12 18 -5 68 -196 14 -55 31 -115
37 -134 l10 -34 388 388 388 388 6 -44 c3 -24 10 -82 16 -129 6 -47 11 -101
10 -120 0 -19 3 -62 7 -95 l8 -60 80 -3 80 -3 147 103 c787 549 782 546 786
558 2 6 -134 10 -382 10 l-385 0 -73 -106 -73 -106 -9 106 -8 106 -182 0 -181
-1 -60 -86 c-33 -48 -72 -104 -87 -125 l-28 -38 -55 25 -55 24 -14 -22 c-8
-12 -20 -34 -27 -49 -16 -36 -25 -35 -38 2 -9 28 2 59 134 367 l145 335 0 94
0 94 45 0 c26 0 45 5 45 11 0 16 213 509 220 509 3 0 100 -90 215 -199 116
-109 211 -198 213 -196 2 2 122 541 122 551 0 2 -47 4 -105 4 -68 0 -105 -4
-105 -11 0 -6 9 -85 20 -176 11 -91 19 -167 18 -169 -2 -1 -102 76 -223 173
-121 96 -223 177 -227 179 -4 3 -14 -10 -21 -28z m-452 -1657 c17 -4 29 -14
27 -21 -3 -12 -165 -250 -169 -246 0 0 -13 66 -28 146 -14 80 -28 153 -31 162
-5 17 -8 18 201 -41z"/>
<path d="M2178 3443 l132 -4 0 -87 0 -87 -165 -242 -166 -242 -122 -4 c-67 -1
10 -4 171 -5 l292 -2 0 340 0 340 -137 -2 -138 -2 133 -3z"/>
<path d="M434 2936 l-28 -23 60 -81 c32 -45 62 -81 65 -82 11 0 30 90 22 103
-21 33 -79 106 -85 107 -4 0 -19 -11 -34 -24z"/>
</g>
</svg>
